<?xml version="1.0" encoding="utf-8"?>

<!DOCTYPE svg PUBLIC "-//W3C//DTD SVG 1.1//EN" "http://www.w3.org/Graphics/SVG/1.1/DTD/svg11.dtd">
<svg version="1.1" id="Layer_1" xmlns="http://www.w3.org/2000/svg" xmlns:xlink="http://www.w3.org/1999/xlink" x="0px" y="0px"
	 viewBox="0 0 2520.756 1659.428" enable-background="new 0 0 2520.756 1659.428" xml:space="preserve">
<path d="M1542.599,29.761c3.8-0.364,7.368,1.405,9.47,4.568c3.537-1.607,7.348-1.809,10.835,0.051
	c2.537-0.92,5.205-1.809,7.348,0.515c-0.172,1.152-1.243,2.476-0.101,3.497c1.314,0.152,2.658,0.263,4.023,0.334
	c0.425,1.112,0.738,2.335,1.607,3.234c1.193,0.091,2.406,0.03,3.639,0.01c0.01-1.738-0.03-3.477,0.02-5.215
	c2.193,0.091,4.427,0.172,6.661,0.172c1.334-0.748,2.678-1.476,4.164-2.011c1.112,0.627,2.203,1.324,3.255,2.112
	c1.759-0.283,3.548-0.606,5.296-1.092c4.154,1.253,8.803-0.697,12.725,1.597c2.537,1.9,7.439-1.092,7.894,3.164
	c1.698-2.951,4.619-5.448,8.187-5.508c3.922,0.142,8.126-1.152,11.674,1.142c0.01-0.879,0.03-2.648,0.03-3.527
	c3.689,1.284,5.842,5.498,6.327,9.228c3.022-2.001,2.921-5.367,2.759-8.581c2.133,1.728,3.911,3.881,4.568,6.62
	c4.488-0.96,9.288,0.162,12.169,3.932c2.112-0.98,6.246-0.202,5.903-3.598c3.629,2.264,6.903-1.162,10.683-0.344
	c0.02,0.718,0.071,2.163,0.091,2.881c3.366,0.697,7.105,0.93,9.743,3.447c2.254-0.384,4.457-1.031,6.742-1.405
	c0.98,0.687,1.809,1.567,2.709,2.395c1.193-0.141,2.416-0.293,3.649-0.445c0.03-1.112,0.081-3.345,0.111-4.457
	c1.961,2.274,4.023,4.498,6.074,6.721c19.412,1.424,13.084-2.486,21.64,5.114c3.851-1.87,9.794-2.224,11.957,2.304
	c2.365-0.04,4.932-0.687,7.176,0.495c2.062,0.96,4.346,2.052,6.549,0.677c3.618,1.749,7.864,2.901,9.784,6.832
	c4.498-0.313,8.733-2.032,13.19-2.527c0.414,1.294,0.758,2.628,1.112,3.962c0.475,0.051,1.425,0.162,1.9,0.212
	c1.395-1.223,2.648-2.608,3.588-4.245c4.552,1.379,4.379,0.633,4.124,7.489c2.769,3.083,7.065,1.678,10.703,2.062
	c0.607,0.809,1.243,1.678,1.84,2.557c0.708-0.414,1.455-0.798,2.244-1.162c0.455-1.021,0.92-2.042,1.415-3.062
	c5.134-0.152,8.53,4.882,9.38,9.44c1.395,2.456,3.345,4.619,6.165,5.397c-1.183-0.829-2.416-1.617-3.568-2.406
	c0.172-1.486,0.374-2.972,0.596-4.447c4.478-0.586,7.56,3.487,10.663,6.105c2.739,0.071,5.488,0.02,8.258-0.01
	c1.193,1.294,2.426,2.577,3.679,3.851c4.589,0.718,8.237,3.709,11.168,7.146c2.123,0.061,4.286-0.01,6.438,0.313
	c1.253,0.829,1.314,2.385,1.637,3.719c4.437,0.364,9.45,0.849,12.139,4.922c5.609,0.869,11.138,2.911,15.221,7.014
	c1.172,0.424,2.385,0.839,3.618,1.273c1.607-0.829,3.345-1.476,5.225-1.364c0.354,1.092,0.738,2.183,1.152,3.275
	c0.576,0.081,1.738,0.253,2.314,0.334c1.425,1.476,3.042,2.759,4.821,3.821c0.596,0.03,1.779,0.111,2.365,0.141
	c0.404,0.495,1.213,1.476,1.617,1.971c2.628,0.323,6.469-0.536,7.732,2.567c0.677,0.04,2.052,0.121,2.729,0.162
	c-0.162,0.748-0.475,2.224-0.637,2.961c0.617,0.283,1.87,0.849,2.486,1.132c1.253-0.131,2.527-0.222,3.841-0.263
	c1.263,1.587,1.324,3.719,1.749,5.64c1.546-0.081,3.113-0.182,4.71-0.293c0.354-1.031,0.758-2.072,1.152-3.113
	c0.718,1.455,2.406,1.041,3.78,1.243c-1.86,4.154-3.143,8.551-3.74,13.059c2.628-0.071,5.003,1.031,7.368,2.082
	c2.709,1.213,5.771,0.546,8.591,1.294c1.081,0.879,2.021,1.941,3.022,2.972c-0.849,0.02-2.567,0.071-3.416,0.091
	c-2.365,2.355-3.639,5.448-3.285,8.803c0.677,0.03,2.021,0.101,2.688,0.142c0.748,0.798,1.516,1.607,2.315,2.406
	c0.249,3.177,0.369,3.203,1.395,6.368c1.364,0.677,2.759,1.354,4.184,2.011c1.567,0.222,3.467-0.03,4.599,1.415
	c-0.718,1.88-2.406,3.618-1.86,5.771c5.131,3.461,10.3-0.134,11.128,9.976c1.496,2.577,3.214,5.023,5.094,7.348
	c0.728,0.02,2.173,0.081,2.901,0.101c-0.01,2.254-0.01,4.508,0.01,6.772c1.011,0.819,2.031,1.647,3.093,2.486
	c-0.748,1.385-1.627,3.012-0.829,4.599c3.072,2.8,7.793,3.598,10.006,7.358c-1.122,2.102-4.356,1.405-6.408,2.133
	c0.263,2.426,0.859,4.801,1.698,7.105c0.01-1.354-0.03-2.699,0.01-4.033c0.708,0.091,2.112,0.263,2.82,0.354
	c1.759,3.214,1.203,6.974-0.182,10.218c0.687,0.111,2.052,0.313,2.739,0.414c0.849,1.981,0.576,5.367,3.265,5.822
	c4.342,0.642,2.785,5.865,9.258,12.189c1.172,0.03,2.385,0.061,3.628,0.111c-0.192,3.255-0.232,6.529-0.566,9.774
	c1.425,0.637,2.85,1.304,4.306,1.991c-1.193,1.405-1.789,3.083-1.698,4.922c2.214,0.788,3.831,2.517,5.458,4.144
	c1.243,0.424,2.486,0.889,3.74,1.405c-1.061,1.91-0.93,4.104-0.95,6.206c2.132-0.546,4.316-1.172,6.479-1.728
	c-0.081,0.566-0.243,1.708-0.323,2.284c-0.809,1.081-1.587,2.193-2.304,3.305c-1.718,1.223-4.063,2.284-4.134,4.75
	c1.9,0.111,4.104,0.293,6.095,0.556c-0.566,0.222-1.688,0.677-2.244,0.9c0.798,0.091,2.405,0.273,3.204,0.364
	c-0.182,0.566-0.536,1.698-0.718,2.264c1.738,0.313,3.608,1.597,5.407,0.849c0.576-0.991,1.132-2.011,1.648-3.052
	c0.97-0.081,2.901-0.243,3.861-0.323c-0.525,4.548-0.424,9.137-0.626,13.695c0.707,1.132,2.042,1.071,3.255,1.203
	c2.507-2.972,5.145-6.196,8.793-7.803c0.92,1.708-1.001,3.77-1.233,5.559c3.77-1.89,7.358-4.831,8.015-9.268
	c0.879,0.192,1.779,0.394,2.709,0.596c-1.092,1.324-2.224,2.598-3.406,3.8c0.255,7.972,6.792,3.801,9.612,2.79
	c0.051-2.749,0.101-5.478,0.152-8.217c1.647,0.344,3.335,0.697,5.043,1.051c0.05,1.122,0.131,2.254,0.243,3.386
	c2.021-0.02,4.053,0.283,6.034,0.839c3.224,0.97,5.943-1.637,9.056-1.961c1.94-0.182,3.153-1.86,4.528-3.073
	c0.253-1.557,0.617-3.093,1.324-4.518c0.576,0.485,1.718,1.455,2.294,1.941c-0.809,2.881-1.536,5.781-2.102,8.723
	c-0.435,0.394-1.314,1.193-1.749,1.597c-0.122,1.213-0.212,2.426-0.273,3.649c1.829-0.051,3.689-0.101,5.569-0.152
	c0.172-0.495,0.505-1.476,0.667-1.971c2.587-0.334,5.226-0.111,7.853-0.061c0.415,0.566,1.233,1.698,1.637,2.274
	c2.961-0.96,5.438-2.891,7.489-5.215c2.072-2.426,5.438-3.123,7.631-5.438c13.94-13.616,13.035-7.352,17.859-13.796
	c3.517-0.111,7.065-0.424,10.481-1.435c1.577-1.526,3.174-3.265,5.438-3.76c1.324,0.303,2.699,0.768,4.053,1.193
	c-1.233,0.192-2.446,0.374-3.628,0.556c-0.142,1.809-0.243,3.608-0.313,5.417c4.922,0.414,9.723-0.839,14.605-1.273
	c0.909-1.122,2.082-1.809,3.517-2.092c-1.779,2.608-4.508,4.215-7.085,5.882c0.121,1.951,0.586,3.861,1.314,5.69
	c4.346-0.273,9.046,0.778,13.099-1.273c0.869,4.306,8.217,4.447,9.026,0.323c4.225,1.698,9.895,4.265,13.332-0.243
	c1.466,0.01,2.961,0.04,4.488,0.081c1.387,4.126-2.07,3.393,10.592,4.922c-0.799-1.405-1.951-2.345-3.467-2.83
	c-0.051-0.455-0.162-1.364-0.213-1.819c3.588-3.103,8.531,0.455,10.673,3.73c0.556,1.617,2.042,0.657,3.244,0.414
	c3.083-1.172,6.398,1.041,9.501-0.232c1.981-0.667,4.073-0.697,6.185-0.495c0.617,2.931,3.356,2.385,5.691,2.274
	c-0.627,1.375-1.163,2.759-1.708,4.144c13.928,1.699,8.968-2.754,17.758-0.061c-0.172,1.445-0.313,2.891-0.414,4.346
	c0.809-0.101,2.426-0.293,3.244-0.384c0.192-0.97,0.404-1.951,0.657-2.911c1.446-0.091,2.901-0.172,4.407-0.243
	c-0.253,5.377,5.286,8.46,10.097,8.005c0.232,0.475,0.707,1.435,0.94,1.91c2.557,0.536,4.296,2.567,6.196,4.215
	c3.619-0.586,7.247,2.406,10.673,0.414c0.798,0.869,1.637,1.749,2.507,2.628c6.428-1.041,11.613,3.861,17.96,3.77
	c0.091,0.586,0.263,1.769,0.344,2.365c1.546,1.001,3.103,1.991,4.69,2.992c1.819-2.102,1.991-4.953,2.486-7.57
	c5.04-32.811-9.364-45.706,0.495-43.896c3.002,0.809,5.053,3.325,6.802,5.741c14.363,20.196,12.588,19.081,18.557,39.044
	c0.566,9.157,3.083,18.092,3.073,27.32c0.869,8.328,0.344,16.707,0.97,25.056c2.507-0.04,5.013-0.455,7.348-1.496
	c1.577,2.385,4.346,1.981,6.863,2.173c1.789,0.293,1.213,2.577,1.627,3.891c2.981,2.092,4.053,5.67,5.72,8.743
	c-1.93,0.202-1.87,1.941-2.031,3.376c-0.566,0.192-1.718,0.576-2.294,0.768c-0.02,0.617-0.071,1.85-0.101,2.466
	c1.425,1.415,2.85,2.85,4.326,4.255c2.618-0.212,4.194,1.92,3.942,4.427c2.375-0.01,4.71-0.546,6.984-1.324
	c-0.364,1.344-0.819,2.668-1.263,3.982c1.041-0.121,3.113-0.354,4.154-0.475c-0.384,3.942-4.366,5.953-5.276,9.693
	c2.406-0.323,4.852-0.566,7.318-0.526c0.323,1.102,0.677,2.214,1.082,3.325c1.213,0.273,3.952-1.314,4.296,0.809
	c0.667,3.719-0.536,7.56-0.364,11.34c0.647,0.253,1.93,0.758,2.577,1.021c0.697-0.081,2.102-0.232,2.8-0.303
	c1.011,1.759,1.324,3.719,1.112,5.751c1.87-1.092,3.912-1.789,6.145-1.749c0.02,1.395,0.071,2.81,0.141,4.225
	c1.86-1.486,4.316-1.172,6.58-1.253c1.173,1.506,2.87,1.86,4.619,1.092c0.99,2.042,3.002,2.86,5.125,3.366
	c-0.03,2.193-0.202,4.387-0.556,6.56c2.375,1.314,4.659,2.81,6.893,4.397c2.011,0.02,4.043,0.04,6.105,0.03
	c0.708-0.728,1.556-1.284,2.537-1.658c0.556,1.668,0.798,3.416,0.92,5.195c-0.617,1.142-1.193,2.304-1.718,3.467
	c2.547,0,5.134,0,7.732,0.01c0.041,0.485,0.121,1.466,0.162,1.951c-2.618,1.405-5.296,2.689-7.904,4.073
	c1.789,0.738,3.719,1.021,5.69,1.203c0.03,0.92,0.101,2.759,0.131,3.669c-0.445,0.283-1.334,0.849-1.779,1.122
	c2.557-0.081,4.346,1.445,5.276,3.74c-2.678-1.031-5.306-2.213-7.975-3.174c-0.364,3.77,3.164,5.842,6.014,7.398
	c3.628,0.273,7.166,1.294,10.835,1.395c-0.334,1.021-0.172,2.709-1.617,2.82c-2.264,0.809-4.538,1.567-6.731,2.426
	c0.576,0.809,1.203,1.617,1.849,2.426c-0.091,0.92-0.141,1.85-0.151,2.79c-1.526,0.708-2.325,2.092-2.971,3.538
	c-2.173,0.323-4.346,0.657-6.459,1.081c1.88,3.123,5.175,5.023,8.278,6.792c3.375,0.728,6.65-0.869,9.996-1.203
	c0.465,0.384,1.375,1.142,1.84,1.526c1.89-0.93,3.881-1.698,5.963-2.224c0.03-0.303,0.101-0.91,0.132-1.203
	c1.374-1.88,2.911-3.73,4.932-4.983c1.173,3.366-1.738,5.498-4.477,6.539c-2.577,3.598-5.68,6.762-8.288,10.33
	c-2.365,0.03-4.7,0.212-6.994,0.566c0.475,0.788,0.98,1.587,1.516,2.395c-0.677,0.9-1.314,1.819-1.92,2.749
	c1.476-0.071,2.982-0.152,4.508-0.222c-1.627,1.557-1.85,3.679-1.799,5.781c-1.223,2.244-2.638,4.376-4.094,6.458
	c2.83,1.334,5.205-1.041,7.803-1.88c1.799-0.243,3.628-0.162,5.508-0.192c-0.051,1.233-0.051,2.466-0.051,3.709
	c-4.397,0.667-8.45,3.467-10.572,7.368c2.375,0.131,5.195-0.687,7.034,1.365c-1.496,1.051-2.921,2.102-4.386,3.143
	c-0.172,2.678-0.364,5.367-0.586,8.055c0.718-0.152,2.143-0.465,2.85-0.617c0.224,5.022-3.652,6.976-13.099,16.212
	c0.445,0.819,0.92,1.648,1.425,2.476c-1.092,2.618-1.941,5.326-2.456,8.116c1.304,0.03,2.648,0.091,4.023,0.172
	c1.637,2.183,4.568,2.507,6.893,3.699c-0.101,0.708-0.293,2.112-0.394,2.81c1.769,0.657,3.548,1.324,5.357,1.981
	c1.375,3.356,3.538,6.398,4.356,9.986c0.526,2.294,1.415,4.548,2.881,6.438c-2.123-1.152-4.831-1.769-5.872-4.174
	c-3.557-7.522-8.375-10.664-15.181-5.448c-2.052,1.344-1.92,4.023-2.507,6.125c0.596,1.193,1.203,2.436,1.971,3.598
	c1.607,0.647,3.396,0.849,5.135,1.253c-1.162,5.205-8.015,2.446-10.521,5.377l0.485,0.869c0.465,0.182,1.405,0.526,1.87,0.697
	c-0.03,1.203-0.02,2.416,0.02,3.639c-3.315,1.162-6.62,2.315-9.824,3.689c-0.081,1.375-0.182,2.739-0.202,4.124
	c-1.607,0.94-3.335,1.91-3.568,3.952c2.193,0.798,4.387,1.698,6.57,2.628c0.283,1.617,0.556,3.224,0.899,4.862
	c3.679-1.718,7.742-0.768,11.482,0.253c-0.576,4.296-7.297,4.599-7.398,9.491c1.9,1.769,4.589,2.699,6.206,4.75
	c0.192,3.295-2.891,5.094-5.478,6.236c1.92,2.779,3.103,6.074,5.478,8.551c-1.991,0.556-3.699,1.658-5.165,3.042
	c-1.233,0.02-2.456,0.03-3.628,0.051c-1.668,2.739-3.355,5.478-4.75,8.359c1.819-0.465,3.679-0.94,5.559-1.435
	c-0.061,0.97-0.172,2.901-0.232,3.871c-5.569,3.305-12.634,4.356-16.728,9.763c2.133-0.05,4.376-0.495,5.913-2.163
	c0.515-0.081,1.536-0.253,2.052-0.333c-4.797,10.988-13.689,5.811-18.425,11.007c2.971,1.183,6.034,2.234,9.228,2.729
	c-1.213,0.425-2.395,0.889-3.537,1.385c-3.669,0.273-7.398,0.051-10.956,1.001c19.656,4.168,20.25-1.075,23.873-4.326
	c-1.466,4.811-5.802,7.833-10.451,9.147c2.607,1.152,5.438,2.011,8.348,1.466c2.81-1.678,5.145-4.033,7.843-5.893
	c0.708,4.639-2.951,8.015-5.579,11.32c3.81-1.152,7.014-3.608,10.713-5.033c-0.162,1.051-0.293,2.102-0.384,3.174
	c-16.071,14.274-11.987,8.668-20.862,14.352c2.335,0.182,4.771,0.273,7.166,0.293c-0.111,0.414-0.344,1.243-0.465,1.658
	c-3.393,1.696-6.117,3.839-10.572,3.487c1.86,0.323,3.699,0.677,5.599,1.041c0.071,0.91,0.202,2.719,0.273,3.628
	c-1.94,0.475-3.022,1.85-3.275,3.8c-0.526,0.152-1.577,0.465-2.102,0.617c0.05,1.183,0.151,2.375,0.293,3.578
	c2.79,1.061,5.66,1.9,8.601,2.577c0.536,1.708,1.021,3.386,1.587,5.134c-1.829,0.141-4.124-1.688-5.559-0.606
	c1.132,1.698,3.052,2.507,5.104,2.476c2.345,1.617,3.982,5.165,7.277,4.74c4.781-0.465,9.188,1.698,13.806,2.557
	c-1.769,0.96-3.477,1.991-5.155,3.022c1.233,2.395,1.233,5.529-0.91,7.429c-3.305,3.285-8.439,0.809-11.815,4.013
	c1.365,1.284,1.223,2.628-0.01,3.911c1.9,1.728,1.001,4.68,1.324,6.994c-1.405,2.587-0.849,5.529-0.768,8.328
	c3.639,1.617,7.055,3.73,10.087,6.347c-3.487-0.95-5.741,2.244-6.064,5.347c-2.102,2.183-1.344,5.296-2.598,7.752
	c-5.66,4.366-13.736,3.073-19.224,7.722c2.537,0.04,5.064-0.606,7.641-0.667c-1.284,2.031-2.557,4.063-3.811,6.095
	c-1.203,0.051-2.375,0.121-3.517,0.202c-0.091,1.425-0.152,2.87-0.192,4.326c1.769,1.122,3.629,2.173,5.256,3.568
	c-0.283,2.85-3.244,4.568-5.781,5.195c0.455,0.829,0.94,1.668,1.466,2.527c-1.041,1.637-2.072,3.275-3.063,4.932
	c0.778,0.313,2.355,0.94,3.144,1.263c-1.334,2.507-3.629,4.215-5.832,5.882c2.678,1.749,4.437,4.296,5.145,7.429
	c-0.182,2.618,0.263,5.205,0.768,7.772c-0.536,0.516-1.607,1.546-2.143,2.062c0.01,1.829,0.192,3.679,0.071,5.529
	c-2.072,2.982-5.822,3.901-8.783,5.68c-0.263,2.193-0.051,4.467,0.424,6.64c3.917,4.707,4.223-3.181,2.981,25.48
	c-0.485,6.792,1.132,13.463,1.627,20.204c0.131,3.649,1.92,6.883,2.84,10.35c-0.111,3.315-1.183,6.519-1.213,9.844
	c0.164,11.018-20.275,33.017-23.651,35.466c-9.946,8.288-22.66,12.442-35.314,14.261c-4.033,4.983-9.895,8.146-16.262,8.834
	c-4.144-0.101-6.6,3.457-9.582,5.68c-24.491,18.216-11.002,8.999-29.048,15.444c-7.025,2.456-15.161-0.313-21.62,3.891
	c14.12,72.836-12.111,69.391-9.854,107.45c0.121,2.527,1.951,4.568,2.385,7.045c-1.344,3.275-3.821,5.953-5.387,9.127
	c0.657-0.586,1.971-1.749,2.628-2.335c-1.728,6.59-0.303,13.948-3.891,20.043c-1.92,3.002-3.002,6.398-4.346,9.662
	c-2.719,2.699-5.367,5.498-7.388,8.763c-2.042,3.952-7.277,5.104-8.621,9.531c-2.648,4.771-2.082,11.108-6.256,14.969
	c-0.212-3.659,0.182-7.54-2.103-10.653c-7.674,6.121-2.575,25.502-1.718,30.756c-1.607-0.526-3.194-1.061-4.74-1.577
	c-0.748-3.022-1.334-6.085-1.9-9.127c-0.536-0.02-1.617-0.061-2.153-0.081c-0.799,1.738-1.314,4.457-3.558,4.76
	c-7.23-9.853-2.135-21.408-7.267-19.608c-1.092,2.416-1.739,5.033-3.224,7.257c-2.981,4.154-2.769,9.713-6.084,13.715
	c-0.657-2.153-0.728-4.619-2.446-6.236c-0.344,5.842-2.668,11.118-5.003,16.374c-0.334,4.619-0.526,9.43,0.556,13.998
	c-0.455,0.465-1.385,1.395-1.839,1.86c-1.819-4.457-6.944-6.186-8.551-10.673c-0.688-1.395-1.223-2.82-2.021-4.114
	c-1.688-0.687-3.558-0.677-5.276-0.92c2.891,3.76,2.972,8.611,4.073,13.038c-0.556,0.192-1.657,0.556-2.213,0.738
	c-1.324-0.859-2.668-1.668-4.023-2.385c-9.023-16.323-13.68-19.024-21.094-25.561c-6.396,21.887,7.212,11.159,4.457,27.148
	c-0.091-3.649-0.546-7.52-3.184-10.269c-1.071,0.03-2.102,0.091-3.113,0.172c-1.193,1.334-2.699,2.234-4.437,2.598
	c0.162-2.961,0.536-5.903,0.99-8.824c-3.305-4.932-5.812-10.532-7.459-16.222c-2.759-0.273-5.539-1.132-5.609-4.336
	c-4.518-2.153-6.317-6.782-8.146-11.067c-1.556-4.215-6.479-6.742-5.832-11.694c-0.394,0.091-1.182,0.253-1.576,0.344
	c-0.819,1.001-1.607,2.011-2.365,3.052c-1.334-0.04-2.638-0.061-3.921-0.061c0.364-3.709-1.85-6.438-3.335-9.521
	c2.153,1.243,3.234,3.537,4.154,5.771c0.051-1.354,0.111-2.688,0.222-4.002c-1.132-0.708-2.203-1.395-3.275-2.072
	c-1.445-4.447-0.152-9.147-1.001-13.635c-0.424-0.374-1.253-1.112-1.667-1.476c-0.516,2.082-0.96,4.205-1.344,6.337
	c-0.96-0.303-1.859-0.677-2.688-1.132c-0.607-3.507,0.414-7.419-1.567-10.572c0.152,1.122,0.455,3.355,0.607,4.467
	c-2.497-0.061-4.922-0.364-6.428-2.507c-0.886-14.993-6.442-13.852-7.075-19.75c-0.96,0.98-1.991,1.9-2.89,2.901
	c-2.78-4.821,0.253-10.148,1.011-15.09c0.394-4.104,5.134-6.347,4.669-10.623c-6.378,2.082-8.995,8.692-13.776,12.836
	c0.414-6.529,3.79-12.654,2.992-19.325c-1.041-6.57,4.033-11.805,4.538-18.132c-0.273-1.567-1.132-2.901-1.759-4.296
	c-4.467,4.316-3.77,11.158-6.812,16.323c-0.344-1.637-0.667-3.265-0.95-4.872c-0.738,0.051-2.203,0.142-2.931,0.192
	c-0.02-0.526-0.041-1.587-0.061-2.123c-0.95,0.152-2.87,0.445-3.82,0.586c0.849-1.385,1.799-2.759,3.699-2.224
	c-0.583-17.404,1.46-13.304,3.76-22.498c-3.063,2.405-4.468,6.196-7.338,8.773c-2.881,2.456-2.749,6.802-5.569,9.278
	c0.596-5.185,2.143-10.198,4.104-15.019c3.041-6.834,4.074-2.442,2.466-13.21c-2.82,3.265-7.115,6.024-6.954,10.865
	c0.071,3.618-3.366,5.731-4.174,9.036c-0.556,2.891-2.739,4.922-4.609,7.004c-0.586-1.304-1.668-2.466-1.668-3.911
	c-0.051-2.951,2.416-4.932,4.053-7.085c-0.394-1.718-0.778-3.447-1.082-5.145c-1.627,3.972-5.508,6.095-9.127,7.934
	c1.85-4.134,6.458-8.46,3.709-13.21c-2.304-4.356,1.587-8.399,2.648-12.513c-0.596,0.01-1.789,0.03-2.385,0.04
	c-1.273,3.623-10.539,23.47-11.654,25.278c-1.557-4.659-0.364-9.602,0.06-14.332c2.335-3.285,3.942-6.964,5.771-10.542
	c-0.526-0.061-1.577-0.182-2.092-0.243c-0.546-1.092-1.061-2.173-1.546-3.244c-13.361,0.792-8.665,12.86-8.49,16.788
	c-0.698,2.214-2.365,4.114-4.72,4.528c0.546-5.539,1.263-11.138,0.384-16.677c-0.778-4.76,1.91-9.268,1.122-14.039
	c1.284-1.122,2.891-2.153,2.992-4.043c-3.932-1.213-1.162-6.61-3.416-9.43c-1.688,3.497-4.498,6.034-7.914,7.762
	c-2.072,3.447-4.184,6.873-6.004,10.451c-0.738-0.02-2.193-0.051-2.931-0.071c-0.051,1.476-0.101,2.951-0.071,4.457
	c-0.637,0.98-1.435,1.587-2.375,1.789c0.081-3.881-0.01-7.853,1.506-11.502c1.425-3.841-0.121-7.995,0.991-11.876
	c0.627-2.476,0.162-5.033,0-7.52c-11.558,12.486-6.556,18.245-12.068,27.219c-1.476-5.013-1.425-10.36-3.305-15.242
	c3.447-4.72,6.155-9.966,6.903-15.828c-2.405,2.365-5.781,3.527-7.995,6.044c-3.56,7.023-1.46,13.239-11.35,26.299
	c-1.314-0.081-2.598-0.131-3.861-0.141c3.776-2.522,5.329-11.325,8.652-33.232c-3.123,4.124-6.196,8.561-7.318,13.685
	c-0.859,2.193-3.356,3.548-3.437,6.084c-0.596,4.356-0.839,9.976-5.296,12.28c-0.505-0.606-1.001-1.112-1.516-1.617
	c0.485,0.071,1.476,0.222,1.961,0.303c2.559-9.782,0.182-12.496,0.323-22.438c-3.79,5.256-8.015,10.4-13.443,14.029
	c-0.94-0.131-1.85-0.253-2.729-0.354c-0.232-4.508,3.436-7.874,4.659-12.028c-1.294,0.303-2.557,0.596-3.8,0.91
	c2.375-3.538,4.478-7.328,5.367-11.532c-2.719,1.759-4.346,4.579-5.771,7.399c-7.976,1.655-11.461,13.211-13.453,14.938
	c-2.021,1.567-4.235,2.84-6.216,4.437c-6.827,1.576-5.012,1.286-11.997,1.172c0.849-0.657,1.688-1.324,2.608-1.941
	c0.505-2.193,1.182-4.346,1.749-6.519c-3.396,2.102-6.833,4.235-10.795,5.033c-0.788-1.011-1.506-1.981-2.244-2.961
	c-3.437,4.124-7.682,7.742-12.856,9.43c-0.344-2.992-0.627-6.084-2.527-8.53c-1.799,1.324,0.121,3.032,0.435,4.548
	c0.869,1.567-0.455,3.143-0.97,4.589c-1.759-1.556-3.467-3.123-5.185-4.659c-8.253,12.332-4.628,3.063-11.431,14.372
	c-3.315,0.182-4.791-2.992-5.367-5.741c-1.506,2.203-3.376,4.104-5.498,5.7c-0.839,2.79-1.89,5.508-3.143,8.126
	c-1.506-0.061-2.992-0.091-4.437-0.121c0.475-1.162,0.97-2.314,1.496-3.457c0-0.768,0.01-2.325,0.01-3.093
	c-1.597,0.616-3.204,1.223-4.75,1.86c-0.121-1.738-0.172-3.487-0.152-5.205c-0.677-0.101-2.011-0.303-2.678-0.404
	c-1.526-2.517-2.031-5.488-3.093-8.187c-2.608,3.386-4.589,7.277-7.874,10.097c0.465,0.849,0.95,1.708,1.466,2.577
	c-1.981,1.789-2.911,4.215-2.84,6.863c-0.232,0.708-0.697,2.123-0.93,2.83c-2.153-0.485-3.123-2.335-3.881-4.174
	c-1.597,1.587-3.042,3.416-5.013,4.548c-1.365-0.131-2.668-0.455-3.962-0.728c0.607-1.031,1.243-2.042,1.9-3.032
	c-0.172-0.546-0.515-1.637-0.687-2.173c1.405-0.98,2.87-1.88,4.457-2.577c2.072-3.649,3.133-7.782,3.204-11.967
	c-3.153,1.93-5.478,4.841-8.369,7.105c-2.395,3.214-3.052,7.348-4.204,11.108c-0.97,0.101-2.921,0.313-3.891,0.414
	c-0.728-2.001-1.051-4.073-1.182-6.155c-0.465,2.547-1.243,5.054-2.638,7.257c-0.263,4.619-0.111,9.248-0.03,13.877
	c-1.021,0-3.073-0.02-4.104-0.02c-1.132-3.153-2.072-6.368-2.79-9.632c-1.688,6.105-2.335,12.503-2.193,18.83
	c-0.758-0.02-2.274-0.061-3.032-0.091c-0.536-1.627-1.102-3.255-1.647-4.841c-2.017,12.101,0.243,15.142-1.486,21.862
	c-1.294,0.425-2.547,0.879-3.8,1.324c-0.374,4.336-0.263,8.682-0.172,13.038c-1.637,0.03-3.255,0.212-4.255-1.253
	c-0.344,5.043-2.618,9.844-1.819,14.999c-3.244,0.293-3.234,6.378,0.041,6.539c0.04,1.011,0.101,3.032,0.131,4.033
	c-1.88-0.091-3.699-0.131-5.529-0.182c1.013,6.719,3.437,3.744,3.153,17.87c-0.404-0.738-1.203-2.224-1.607-2.972
	c-1.122,6.044-2.496,12.028-3.972,17.981c0.91,4.316,3.81,7.843,5.387,11.927c4.002,9.288,2.83,19.598,3.669,29.432
	c-0.495,3.093-3.275,6.216-1.172,9.299c1.405,2.042-0.899,4.225-0.121,6.378c1.149,1.634,2.869,3.127,13.443,6.63
	c-3.558,0.404-7.075,1.162-10.653,1.284c-0.788,2.375-3.133,3.426-4.821,5.043c-1.074,2.055,1.019,18.313,1.172,19.315
	c1.496,5.589,4.063,10.875,5.175,16.596c4.05,17.444-3.968,4.162,36.285,56.004c3.568,4.498,7.095,9.096,9.925,14.12
	c3.875,20.26,0.76,46.978,10.542,70.427c4.041,20.123,2.557,17.215,2.557,34.435c-0.131,4.791,2.052,9.319,1.839,14.13
	c4.508,6.519,1.627,15.04,5.397,21.821c1.302,2.458,20.013,44.177,11.098,53.457c-3.77,0.778-7.813-0.546-11.411,0.91
	c-2.517,1.001-2.244,4.023-2.759,6.216c-2.567,1.425-4.821,3.729-7.823,4.124c-20.925,1.803-52.697-6.777-72.853-12.412
	c-28.172-7.467-34.804-18.476-41.217-24.672c-3.588-3.275-4.892-9.086-2.365-13.342c2.113-4.063,3.174-8.571,5.509-12.523
	c2.426-4.609,0.263-9.683,0.152-14.504c-0.322-7.943-2.908-11.757-12.462-9.804c-0.617-0.809-1.213-1.597-1.799-2.365
	c-6.135,0.071-10.198-7.125-8.086-12.573c1.647-5.397,6.347-9.117,8.116-14.433c1.85-5.074,5.61-9.107,8.055-13.857
	c0.849-4.235,0.9-8.591,1.263-12.877c-8.177-1.223-16.091,2.325-23.499,5.327c-0.394-0.414-1.172-1.243-1.567-1.658
	c-2.102,0.121-4.205,0.212-6.277,0.303c-0.01-0.94-0.04-2.83-0.051-3.78c3.437-1.698,5.761-4.791,7.985-7.793
	c3.194-3.669-0.475-9.026,2.021-13.069c3.699-6.246,6.57-12.937,10.036-19.315c1.708-2.698,0.91-6.004,0.738-8.965
	c-1.465-0.98-3.851-1.375-4.083-3.426c-0.505-2.749-0.182-5.549-0.637-8.268c-2.021-1.597-4.488-2.456-6.792-3.467
	c-0.819,10.526,4.056,11.932,3.002,16.758c-1.179,5.342,1.909,7.529-6.469,10.936c0.97-1.951,2.517-3.982,1.344-6.196
	c-2.042-4.973-0.849-10.997-4.75-15.151c-0.455,1.415-0.869,2.86-1.263,4.316c-2.739-0.152-5.417-0.698-8.025-1.445
	c-1.893,9.852,10.5,19.963,2.759,36.244c-1.102-4.781,1.274-9.693-0.475-14.362c-0.96-3.942-3.507-7.166-5.175-10.764
	c-0.627-4.417-0.556-10.047-5.013-12.523c-1.91,3.467-3.285,7.217-4.043,11.108c1.091,3.386,2.931,6.954,1.607,10.582
	c-1.981,5.134-3.285,11.31,0.182,16.141c-1.84,1.284-4.013,1.435-6.155,1.344c0.263-5.013-2.385-9.43-4.265-13.867
	c-2.153-0.111-4.862-0.152-5.933-2.365c-0.384-3.618,0.546-7.247,0.01-10.825c-2.032-3.224-3.74-6.641-4.195-10.461
	c-1.193-0.04-2.365-0.05-3.517-0.061c-5.877,18.825-7.086,16.837-5.579,22.256c-0.394,0.505-0.758,1.031-1.102,1.587
	c-1.041-1.627-2.699-2.557-4.245-3.578c0.111-1.779,0.283-3.527,0.505-5.256c-4.578,3.224-6.661,8.621-10.299,12.705
	c0.237-3.656,8.096-18.893,9.359-25.359c-9.383,10.28-4.205,11.285-18.041,22.377c2.274-4.457,6.095-7.995,7.934-12.675
	c0.98-3.861,1.607-7.793,2.587-11.643c-1.344,1.172-2.668,2.365-3.962,3.568c-1.071-0.02-2.122-0.02-3.143,0
	c-5.064,8.194-15.888,21.904-25.319,23.974c12.503-4.467,14.491-19.905,25.763-28.351c-0.131-5.448,2.214-10.693,2.082-16.101
	c-1.91-0.809-1.445,2.193-2.123,3.255c-0.081,2.112-2.456,1.991-3.962,2.385c-0.384-1.142-0.738-2.274-1.061-3.396
	c-1.466,0.081-2.931,0.141-4.356,0.243c0.081-0.677,0.243-2.032,0.313-2.709c-6.994,1.769-9.298,9.117-11.431,15.141
	c-2.234,0.697-4.447,1.486-6.56,2.466c-0.303,4.882-5.731,5.872-9.278,7.712c0.516-5.296,6.944-6.62,8.632-11.31
	c0.465-3.639-1.284-7.055-2.133-10.491c-0.495,2.315,0.061,5.225-1.991,6.893c-1.678,0.303-3.396,0.263-5.023-0.061
	c-1.294-2.021-0.01-4.579-0.92-6.711c-1.415-3.265-3.123-6.388-4.599-9.602c-0.404-0.192-1.203-0.566-1.607-0.748
	c0.92,3.588,1.122,7.51-1.708,10.34c-2.436-0.374-4.75-1.071-6.994-1.981c-3.662-1.665-5.934,2.355-7.237-5.852
	c-0.536-0.333-1.607-1.001-2.143-1.324c-1.385-0.051-2.759-0.131-4.083-0.192c-1.91-2.294-4.498-4.336-4.851-7.489
	c-0.859-1.688-0.465-5.367-3.103-5.043c-0.081,1.627,0.202,3.275,0.526,4.892c-1.627-1.819-3.396-3.487-5.205-5.084
	c0.243-2.749,0.283-5.508,0.051-8.248c-0.485,0.93-0.95,1.87-1.385,2.84c-1.85,0.051-3.679,0.121-5.488,0.212
	c-1.061-4.043-3.517-7.439-5.145-11.219c-4.013-0.677-2.537-5.791-3.174-8.702c-1.385,2.375-3.002,4.609-4.882,6.61
	c-0.111,0.728-0.334,2.173-0.445,2.901c-0.616-0.364-1.86-1.102-2.476-1.466c0.404-3.81,1.668-7.449,2.749-11.098
	c-1.536-1.334-2.961-2.81-3.426-4.831c-2.911,2.921-5.902-0.455-8.611-1.728c-1.809-0.798-3.204-2.193-4.538-3.568
	c0.465,3.467,1.668,6.772,2.497,10.168c0.808,0.243,1.647,0.505,2.507,0.788c0.394,0.889,0.819,1.799,1.284,2.709
	c-0.98,0.586-1.971,1.162-2.911,1.789c0.03,0.98,0.081,2.961,0.111,3.942c-2.072-1.233-0.809-3.871-0.778-5.711
	c-1.87-0.273-4.093-0.111-5.306-1.819c-3.79-4.498-2.537-10.956-5.721-15.717c-2.294-4.013-2.638-8.854-5.397-12.604
	c-2.164,10.509-17.138,41.231-22.094,58.854c-22.49,68.739-18.918,61.891-11.229,131.373c0.583,6.932,20.493,45.679,20.548,50.657
	c-0.082,6.012,9.486,19.009,10.026,20.022c2.658,3.901,3.325,8.692,5.609,12.796c2.85,5.044,2.426,11.169,5.266,16.222
	c5.247,9.985,11.277,26.975,0.96,31.403c-1.84,0.95-3.952,0.748-5.923,0.91c-1.405,5.913-7.166,9.521-12.755,10.703
	c-10.683-0.718-21.407,0.03-32.08-0.515c-8.409-1.617-16.98-1.829-25.511-1.951c-20.033-3.463-51.101-14.553-61.26-30.311
	c-2.35-21.78,0.873-18.259,3.346-28.998c-0.617-3.012-1.435-5.983-1.708-9.046c-0.647-3.558-4.993-4.72-7.702-2.588
	c-0.434-1.405-0.97-2.88-1.344-4.225c-2.234,1.314-4.366,3.255-7.095,3.265c-5.296,0.576-10.38-4.296-9.945-9.612
	c-0.03-5.407,6.699-20.398,8.217-30.473c7.066-34.25,3.617-2.791,11.249-49.404c2.214-10.309-0.202-20.821,0.333-31.211
	c0.698-4.872,1.951-9.642,2.719-14.494c-4.417,5.327-9.39,10.127-13.483,15.737c-0.505,0.091-1.516,0.263-2.021,0.354
	c1.639-10.845,8.186-7.911,7.378-27.481c-8.425-1.336-7.591,0.562-10.208,4.872c0.05-1.85,0.202-3.669,0.414-5.478
	c-0.111-0.374-0.334-1.122-0.435-1.486c1.061-2.517,1.708-5.165,1.9-7.874c-6.933,5.711-9.854,14.554-15.808,21.104
	c-3.153,4.75-9.076,6.58-11.623,11.815c-3.558,1.314-5.468,5.084-9.086,5.984c-0.93-5.205,3.042-8.662,5.66-12.513
	c1.567-1.698,0.283-3.942-0.05-5.822c-1.051,0.03-2.082,0.091-3.093,0.162c-0.849,1.334-1.526,2.901-2.921,3.78
	c-1.9,0.344-3.841,0.323-5.731,0.465c0.101-0.596,0.313-1.799,0.414-2.395c3.527-2.092,4.417-6.438,5.387-10.087
	c-2.234,0-4.376,0.465-6.317,1.557c-0.293,6.863,0.697,13.857-1.112,20.599c-0.778-0.081-2.335-0.243-3.123-0.323
	c0.03-0.718,0.081-2.153,0.111-2.87c-1.182-0.637-2.345-1.253-3.487-1.839c-3.372-17.568-1.082-16.289-2.274-24.217
	c-0.505,0.081-1.526,0.232-2.031,0.313c-0.819,3.537-2.122,6.994-2.446,10.653c-1.182,0.152-2.345,0.323-3.497,0.515
	c-0.809-4.114,1.496-8.005,0.859-12.068c-0.748-1.749-2.729-1.172-4.194-1.334c-0.99,3.487-1.87,7.308-4.7,9.834
	c-0.455-2.729,1.061-6.448-1.971-8.045c0.92-0.718,1.86-1.435,2.81-2.133c-0.02-0.738-0.051-2.213-0.071-2.951
	c-0.748,1.738-1.789,3.325-3.073,4.72c0-12.663,5.315-15.53,3.881-35.123c-0.718,2.426-1.718,4.781-3.073,6.944
	c-0.778,0.061-2.345,0.192-3.123,0.253c0.152-2.951,0.344-5.892,0.637-8.813h-0.323c-1.627,2.021-3.426,3.911-5.013,5.973
	c-0.03-1.688-0.04-3.366-0.04-5.023c-0.738,0.253-1.455,0.526-2.163,0.819c0.374-1.829-0.374-2.82-2.214-2.901
	c0.04,0.809,0.111,2.436,0.152,3.255c-0.445,0.384-1.334,1.142-1.779,1.526c-0.778,2.183-0.96,5.043-3.538,5.994
	c0.323-3.881,0.768-7.732,0.809-11.613c-0.879-1.082-1.738-2.163-2.567-3.224c4.094-4.932,9.177-11.896,5.306-18.365
	c1.334-8.429,6.044-16.444,4.619-25.278c-0.364-0.354-1.082-1.082-1.445-1.445c-1.284,5.124-2.517,10.552-6.327,14.473
	c-2.931,2.941-4.558,7.399-8.702,8.905c-0.344-1.365-0.687-2.689-1.263-3.932c4.063-3.932,2.456-9.774,2.971-14.767
	c1.031-2.476,2.476-4.771,3.255-7.338c-3.699,2.395-3.982,8.621-8.743,9.278c0.253-3.709,1.021-7.358,1.789-10.977
	c-4.397,4.346-9.592,8.531-16.02,8.985c0.081-1.425,0.202-2.8,0.303-4.184c2.82-1.445,5.903-2.577,8.055-5.013
	c0.586-3.719,1.142-7.469,0.637-11.219c-2.456,2.153-4.538,4.7-5.973,7.631c-5.02,0.163-2.414,0.058-7.904,1.243
	c0.131-0.425,0.394-1.263,0.516-1.688c1.688-0.162,3.396-0.273,5.084-0.576c12.434-23.514,9.773-19.342,9.622-27.431
	c-1.658,1.799-3.366,3.558-5.225,5.145c0.576-2.486,1.334-4.902,2.122-7.318c-0.404-1.455-0.778-2.891-1.132-4.306
	c-5.304-5.885,1.272-17.332,2.304-24.085c1.031-4.619-1.294-9.48,0.637-13.958c5.347-7.762,8.409-16.879,14.312-24.308
	c-9.276,0.927-25.316,7.357-26.4,7.803c0.131-0.465,0.394-1.395,0.526-1.86c1.004-0.412,18.341-13.813,29.402-25.662
	c-1.991-0.061-3.942-0.071-5.903-0.051c2.446-1.971,3.992-5.023,7.035-6.206c12.528-5.93,28.854-15.276,34.839-27.724
	c-4.831,2.133-9.693,4.366-13.807,7.742c-2.18,6.234-18.665,10.773-23.954,12.21c-3.093,1.718-6.499,2.81-10.057,2.891
	c17.875-8.542,26.213-6.801,31.959-16.525c-0.01-0.93-0.02-2.81-0.03-3.74c-2.011-0.101-3.992-0.162-5.973-0.232
	c2.704-1.159,10.151-3.042,19.931-18.021c9.745-12.115,12.145-13.916,10.269-23.732c-2.395,1.365-5.539,2.092-6.802,4.821
	l-0.475-0.081c1.629-6.84,13.239-15.801,13.766-28.543c-1.607,0-3.164,0.03-4.72,0.04c-0.728-4.083,3.113-7.206,2.496-11.209
	c-0.869-1.162-1.91-2.173-2.86-3.194c-5.609,0.384-11.209,0.445-16.727,1.556c-0.071-1.102-0.111-2.183-0.131-3.265
	c1.415-0.92,2.779-1.961,3.911-3.244c-4.275-0.364-7.348,3.002-9.278,6.398c-2.781-2.922-3.514-1.435-0.061-9.076
	c-4.841-0.333-9.349-4.225-14.17-2.375c-1.89,0.9-3.174-1.112-4.488-2.021c-0.071-2.234-0.01-4.619-1.698-6.287
	c-0.536-1.031-1.021-2.042-1.506-3.063c-2.193,2.648-5.701,3.063-8.581,4.579c-2.274,1.142-4.488,2.547-7.045,2.901
	c-0.101-0.92-0.192-1.819-0.263-2.709c2.042-1.385,4.083-3.052,2.203-5.599c-6.157,4.428-25.32,5.76-30.099,5.377
	c0.192-0.637,0.576-1.92,0.768-2.567c6.853-0.576,10.097-7.823,9.369-13.968c-3.376-0.222-7.692-0.162-8.702-4.205
	c-3.932,0.738-7.813,1.708-11.593,3.012c-0.768-2.143-1.435-4.296-2.032-6.469c-4.697,1.744-11.96-2.058-15.939-5.134
	c-2.274,0.839-4.771,1.152-6.681-0.596c0.071-0.93,0.192-2.779,0.253-3.699c-8.985,1.627-18.395-0.404-27.087,2.779
	c-4.508,1.031-9.187,0.546-13.756,0.546c3.75-3.629,7.833-6.883,11.866-10.178c-3.467,0.778-6.731-0.435-10.067-1.051
	c-5.157,0.688-13.251,2.833-14.756-0.445c-4.012-0.01-7.752,1.557-10.451,4.518c-3.831,0.162-7.651,0.081-11.451-0.081
	c-0.414-1.092-0.94-2.092-1.587-3.002c-2.84,0.01-5.347,1.314-7.671,2.779c-3.821,2.517-8.52,2.658-12.715,4.184
	c-1.668,0.687-3.457,0.445-5.155,0.202c0.516-1.092,1.536-3.275,2.052-4.366c-4.012,1.213-8.682,3.81-12.705,1.223
	c0-0.657,0.01-1.961,0.02-2.618c-4.184,2.304-8.854,3.184-13.574,2.557c1.465-1.496,2.931-3.174,2.416-5.448
	c-41.663,8.899-36.313,6.544-38.822,16.182c3.063,0.232,5.66-1.132,7.904-3.062c-5.125,5.574-8.375,5.498-12.23,5.498
	c-0.151-1.577-0.293-3.143-0.424-4.69c-1.253,1.061-2.507,2.123-3.74,3.194c-1.182-1.931-2.365-3.851-3.558-5.751
	c-2.587,4.356-7.035,6.681-11.451,8.783c-0.799-1.061-1.233-2.416-2.294-3.194c-2.739-0.333-5.64-0.758-8.308-0.02
	c-10.867,8.284-0.861,3.013-17.971,8.045c-1.092,0.697-2.193,1.395-3.285,2.092c-0.01,0.374-0.05,1.122-0.061,1.496
	c-0.627,0.061-1.88,0.172-2.507,0.222c-1.88,2.143-4.195,3.81-6.681,5.165c2.264-1.627,4.316-3.568,4.579-6.58
	c-2.688,1.304-5.246,2.82-7.813,4.336c0.425-1.728,0.869-3.436,1.324-5.145c-5.104,0.758-10.815-0.202-15.221,3.012
	c-2.507,2.143-5.842,0.526-8.743,1.162c-4.164,0.637-7.004,6.064-11.532,3.527c0.04-0.859,0.111-2.577,0.152-3.437
	c-0.708,0.121-1.415,0.253-2.092,0.394c-2.4,3.071-14.173,10.689-17.213,12.523c-0.97,0.051-1.93,0.121-2.88,0.202
	c-0.293-2.719,1.829-4.296,3.76-5.731c-1.243-1.647-2.81-3.608-5.145-2.84c-4.195-0.404-6.428,3.548-9.561,5.498
	c-2.709,1.395-5.68,2.143-8.531,3.153c0.374,2.658,0.374,5.488,1.516,7.975c6.549,5.519,13.918,10.087,20.346,15.757
	c-2.628,4.002,2.81,7.004,2.891,10.966c-0.091,1.496,0.93,3.901-1.364,4.195c-1.86,1.142-1.86,3.911-2.931,5.731
	c-0.798-0.071-2.406-0.223-3.214-0.293c-0.121,2.042-0.222,4.094-0.313,6.165c-1.647,0.131-3.285,0.283-4.912,0.455
	c-0.263,0.637-0.798,1.91-1.061,2.547c-0.404-0.354-1.213-1.061-1.617-1.405c1.001,3.598-2.789,3.911-5.326,3.467
	c-0.01,2.092-0.344,4.336,0.778,6.256c-7.441,7.366-1.929,7.36-5.852,15.717c-1.071,0.061-2.133,0.141-3.174,0.232
	c-1.152,1.263-2.557,2.173-4.255,2.426c-0.94-3.214-1.708-6.539-3.416-9.43c0.071,5.114,1.021,10.279-0.354,15.333
	c-0.485,0.425-1.455,1.253-1.941,1.668c-0.505,3.275-0.677,6.59-0.637,9.915c-0.313,0.586-0.95,1.759-1.263,2.345
	c-1.425,0.061-2.84,0.141-4.235,0.243c0.263-0.849,0.778-2.527,1.031-3.366c-0.485,0.03-1.466,0.081-1.951,0.111
	c-0.061-1.415-0.111-2.81-0.142-4.184c-0.455-0.414-1.385-1.233-1.839-1.648c-1.546-5.69-4.397-10.875-6.196-16.454
	c-3.871-5.781-3.73-13.069-6.095-19.295c-0.69-28.727-3.973-21.624-10.168-36.042c-1.769-0.647-3.588-1.162-5.407-1.526
	c-23.209-19.019-31.278-10.134-85.032-47.099c-27.225-19.066-108.974-88.414-165.192-114.828
	c-7.166,14.012-33.237,89.33-39.539,155.54c-2.153,27.391-3.002,54.953-7.591,82.101c-0.687,4.033-2.517,7.964-2.042,12.129
	c0.475,4.377,0.141,8.925-1.243,13.129c-3.75,4.073-6.58,9.42-6.357,15.1c-1.068,45.191-6.428,112.829,12.705,151.244
	c31.539,71.923,88.611,154.703,155.226,202.589c4.649,3.416,6.226,9.208,9.379,13.796c3.663,6.9,35.08,41.255,24.53,54.589
	c1.794,15.314-8.611,14.256-49.02,16.556c-51.911,1.025-51.811-1.049-67.536-7.5c-43.181-17.207-11.326-24.786-36.133-31.666
	c-4.447-1.071-8.945-2.345-13.574-2.072c-3.527,0.293-6.509-2.355-10.077-2.082c-4.225,0.313-7.863-2.092-11.067-4.508
	c-2.102-2.759-3.962-5.741-5.488-8.834c0.081-4.174,2.123-8.025,2.123-12.199c0.384-6.772-1.93-13.907,1.051-20.356
	c4.479-13.896,12.404-1.546-141.612-267.426c-10.4-13.604-20.083-27.765-30.17-41.601c-3.81-4.862-5.69-10.825-8.429-16.283
	c20.831-85.805,19.84-50.643,23.176-133.688c-8.894,8.672-14.19,20.417-23.418,28.816c-45.21,43.118-26.341,14.103-77.775,79.938
	c-19.921,24.388-58.362,103.889-68.79,165.313c-22.266,86.155-11.237,116.875-6.014,143.532c1.095,8.422,12.797,5.054,23.206,19.183
	c10.069,8.467,10.639,16.205,26.956,39.539c3.062,4.356,8.359,6.519,11.158,11.098c3.932,5.933,8.844,11.421,11.421,18.132
	c-0.263,5.205,0.586,11.805-4.174,15.333c-2.557,2.335-6.266,1.557-9.44,1.769c-3.467,12.981-5.336,11.495-17.971,12.058
	c0,0-59.683-0.901-63.756-1.102c-17.273-2.609-48.928-15.455-49.97-32.929c-0.02-6.792-1.031-13.635,0.556-20.336
	c-42.342,3.877-24.621-20.887-17.395-44.532c-0.101-9.41-0.768-18.83-1.233-28.219c-1.546-4.669-4.74-8.621-6.903-13.018
	c-3.295-0.687-6.539-1.678-9.885-2.042c-6.56-0.101-13.857,2.426-19.77-1.465c-0.131-2.962-0.819-5.832-1.152-8.743
	c0.9-3.871,2.689-7.459,3.628-11.31c0.889-4.245,3.76-7.58,5.994-11.158c25.699-38.629,12.15-7.365,22.236-43.512
	c5.596-17.735,5.966-10.205,10.34-37.194c-2.857-25.213,14.642-43.558,16.151-54.458c18.713-110.352,10.879-54.113,14.706-114.333
	c5.821-45.546,15.17-52.301,18.698-74.662c2.608-8.227,0.758-16.899,1.738-25.298c3.598-14.534,6.944-29.26,12.685-43.117
	c14.859-11.181,15.325-4.17,62.847-61.492c0.668-1.006,23.786-36.381,24.803-39.903c14.238-49.948,13.794-47.738-5.357-113.16
	c-0.398-1-20.7-41.253-26.926-51.668c-6.873-11.017-10.33-23.711-16.778-34.941c-10.801-21.183-6.503-20.597-13.554-37.993
	c-12.472-33.01-17.297-48.477-25.036-96.665c-10.717-94.526,44.671-175.723,45.412-178.301
	c-8.476-0.638-53.476,15.284-69.679,69.295c-19.056,46.45-13.29,129.648-2.931,147.656c19.156,38.886,13.889,27.579,15.282,40.853
	c0.556,5.175,2.264,10.168,2.79,15.353c-0.172,4.073-3.335,7.206-4.518,10.966c0.515,4.397,2.709,8.662,1.708,13.17
	c-4.406,25.563-4.314,54.706-9.743,59.814c-0.788,1.294-1.607,2.567-2.496,3.81c-0.283,3.74,1.041,7.469,0.404,11.209
	c-1.991,5.387-5.943,10.036-6.843,15.818c-1.536,1.344-2.941,2.82-4.184,4.457c-3.932,1.516-7.277,4.083-10.501,6.731l-0.131-0.424
	c2.268-1.56,18.566-19.567,17.485-31.777c-1.203,0.93-2.395,1.86-3.588,2.81c-1.051-0.131-2.102-0.253-3.153-0.364
	c-5.908,9.416-0.4,9.902-20.912,31.504c-2.224,2.234-3.295,5.306-5.337,7.681c-1.688,1.001-3.598,1.536-5.428,2.214
	c16.212-19.659,14.63-12.893,22.862-35.931c-16.374,13.373-11.562,16.131-17.597,23.58c-5.68,5.377-9.895,12.573-17.101,16.161
	c-4.508,2.426-8.399,5.741-12.422,8.854c-6.479,2.284-13.038,5.195-20.032,5.205c2.951-0.869,6.196-1.769,7.277-5.023
	c-4.366,1.223-8.723,2.476-13.038,3.871c-4.791,4.7-12.381,3.78-18.526,3.315c2.496-0.162,4.942-0.708,7.115-1.991
	c22.688-8.397,22.674-5.531,31.706-10.926c5.217-3.264,13.917-1.515,22.913-16.465c1.476-2.102,0.222-5.124,2.133-7.004
	c2.021-2.042,4.659-3.8,4.983-6.934c-1.314,0.586-2.628,1.193-3.932,1.839c8.588-4.976,10.211-21.366,10.441-22.367
	c-4.265,4.215-8.915,8.217-14.585,10.4c6.256-5.246,11.694-11.381,17.283-17.283c1.213-6.357,4.407-12.058,6.105-18.254
	c-4.993,4.619-8.611,10.451-12.796,15.767c-5.06,5.426-21.32,9.446-27.431,13.887c-4.649,3.335-10.016,5.407-14.847,8.44
	c-7.115,4.639-16.232,1.698-23.722,5.367c-2.818,1.416-17.379,7.602-24.146,7.762c4.659-4.76,11.532-6.054,16.94-9.703
	c6.741-4.194,14.949-2.749,22.418-3.871c4.447-1.577,7.874-5.084,11.937-7.419c7.479-5.205,16.707-6.691,24.813-10.582
	c4.296-4.387,8.146-9.258,12.017-14.019c3.457-8.015,9.349-14.564,13.837-21.963c0.495-6.085-0.263-12.23-0.687-18.314
	c-2.304,3.305-2.345,7.469-3.73,11.148c-3.39,9.896-13.788,25.03-16.869,27.583c-8.247,2.739-13.321,10.431-20.922,14.312
	c-18.968,9.718-4.864,5.482-35.456,3.396c4.963-0.081,9.905,0.748,14.847,0.94c6.145-0.556,12.038-2.557,18.142-3.376
	c0.889-1.728,1.93-3.366,3.517-4.508c2.375-1.445,2.345-4.457,3.608-6.65c4.467-2.81,9.905-3.922,14.13-7.095
	c2.739-4.285,7.166-7.914,7.51-13.311c3.119-23.241,11.808-19.846,9.46-40.57c-0.339,1.001-2.651,15.662-6.388,14.069
	c-1.001-3.244,1.213-6.186,2.143-9.167c0.805-1.741,3.316-22.933,3.406-25.076c-13.055,25.542-9.518,26.604-14.302,36.507
	c-4.773,11.254-0.915,13.358-3.639,19.477c-2.456,5.852-3.821,12.321-8.035,17.283c3.342-13.369,2.491-0.158,6.944-39.802
	c0.384-4.771,4.326-8.288,4.902-13.008c5.943-33.344,6.697-24.416,10.319-33.495c-0.232-9.097-5.213-5.166,1.385-27.027
	c-6.721,8.234-9.633,35.649-21.973,63.17c-1.86,3.871-1.86,8.247-2.557,12.412c-0.677,4.599-2.042,9.066-3.275,13.544
	c-0.364-0.515-1.102-1.536-1.466-2.052c1.071-5.468,2.81-10.825,3.325-16.394c0.536-4.296,0.798-8.632,1.557-12.887
	c1.88-6.984,6.287-13.129,7.257-20.366c0.935-6.102,6.787-36.184,5.983-43.703c0.515,3.719,0.798,7.459,1.112,11.209
	c-0.364-6.721-0.243-13.453,0.253-20.164c0.772-7.096-5.706-8.903,0.182-29.594c-2.87,5.094-6.62,10.168-6.853,16.242
	c-0.344,7.924-2.668,15.565-3.345,23.449c-0.869,8.379-5.276,15.686-8.541,23.267c0.827-5.638,4.465-15.586,4.973-19.224
	c-1.253-7.52,0.313-15.12,2.092-22.418c0.455-3.992-0.02-8.035,0.323-12.038c0.202-2.881,2.284-5.225,2.668-8.035
	c-0.313-1.971-0.92-3.871-1.445-5.771c18.348-32.003,9.512-22.182,13.139-30.554c1.031-2.476,2.193-4.892,3.062-7.419
	c-5.913,6.923-9.814,15.646-10.896,24.682c-6.923,4.902-8.409,13.908-9.885,21.67c-2.699,3.346-6.428,5.731-9.531,8.702
	c-0.657,4.629-1.132,9.289-1.678,13.938c-0.354,4.447-3.164,8.247-3.406,12.735c-0.455,0.03-1.344,0.091-1.789,0.121
	c3.871-9.602,2.648-20.043,3.962-30.089c2.395-2.931,5.458-5.276,8.51-7.5c4.101-2.805,3.283-32.428,10.633-38.043
	c1.172-4.76,2.941-9.38,3.426-14.281c-3.841,4.144-6.135,9.369-8.894,14.221c-1.668,2.955-8.139,6.044-11.431,18.466
	c0.404,3.942,2.678,7.631,2.315,11.684c-1.274,3.265-3.275,6.165-5.013,9.198c-1.567,0.374-3.123,0.748-4.69,1.112
	c-0.061-2.426,1.496-4.043,3.174-5.478c1.213-4.356,2.062-9.006,0.778-13.463c-1.516-4.659,1.688-9.026,2.658-13.473
	c2.315-2.658,4.073-5.761,6.519-8.308c0.515-0.081,1.536-0.233,2.052-0.313c1.647-4.892,1.779-10.38,4.7-14.777
	c3.174-3.548,8.035-5.064,11.027-8.814c-7.156,2.961-14.837,5.397-20.578,10.835c-5.018,8.171-6.659,27.287-15.686,26.673
	c1.243-3.184,2.527-6.347,4.235-9.309c3.628-5.984,3.517-13.352,6.59-19.568c5.831-9.705,10.626-7.285,14.11-10.026
	c4.545-3.388,4.685-3.022,16.748-19.618c-0.859-1.334-1.698-2.658-2.547-3.982c1.698-1.648,3.911-3.174,4.013-5.781
	c-6.984,2.901-14.666,2.385-21.751,0.162c2.395-0.01,4.791-0.071,7.186-0.172c5.074-5.064,13.827-3.578,18.183-9.632
	c7.976-37.469,8.322-38.706,37.649-82.545c28.997-34.995,43.284-36.982,54.68-45.23c6.63-4.851,13.614-9.632,21.801-11.381
	c4.518-0.425,6.6-5.155,10.582-6.711c8.325-3.278-1.611-3.359,24.854-9.602c4.002-0.849,6.994-3.841,10.4-5.903
	c24.149-15.231,22.536-4.895,65.727-20.962c10.451-2.224,20.7-5.357,31.211-7.328c5.195-0.809,10.845,0.172,15.565-2.658
	c177.179-108.733,111.233-28.758,297.778-101.133c0.071-1.92,0.556-3.77,1.334-5.529c0.586,0.162,1.749,0.465,2.335,0.627
	c-0.465-0.455-1.385-1.354-1.84-1.809c6.994-1.708,14.221-2.264,21.225-3.952c1.89-0.03,2.183-2.072,2.992-3.376
	c1.162-0.101,2.335-0.192,3.517-0.273c0.344,0.546,1.011,1.658,1.344,2.213c3.002-0.404,6.822,0.536,8.884-2.274
	c1.86-1.981,4.892-0.404,7.257-0.505c-0.303-0.697-0.91-2.092-1.223-2.79c2.203-2.507,6.226-0.657,9.157-0.809
	c2.001-4.326,7.661-2.699,11.462-4.073c0.323-0.556,0.96-1.678,1.284-2.234c1.971-0.404,3.962-0.718,5.973-0.97
	c0.435-0.94,0.879-1.87,1.334-2.81c6.287-0.879,12.937,0.556,18.931-1.971c3.831-1.031,7.752,0.697,11.654,0.323
	c1.961-0.94,0.768-3.436,1.051-5.114c2.759,0.142,3.75-1.789,3.911-4.265c2.759-1.213,3.558-3.881,3.558-6.701
	c16.14-0.887,12.31-4.072,14.302-9.572c2.294-0.02,4.599-0.131,6.883-0.556c2.86,0.95,5.872,1.273,8.884,1.284
	c1.897-8.254,1.961-5.293,6.984-5.155c2.81-4.872,8.5-0.95,12.391,0.263c1.031-1.607,1.941-3.335,3.285-4.73
	c3.8-0.778,7.52,0.617,10.987,2.042c1.041-1.536,1.9-3.174,2.699-4.862c2.001,0.283,4.023,0.546,6.064,0.728
	c3.265-2.921,7.51,0.02,11.29-0.556c2.719-0.222,3.972-4.205,6.994-3.143c4.7,1.081,10.421,3.406,14.413-0.617
	c4.093-0.061,7.904-1.637,11.896-2.284c5.357-0.04,10.754-0.131,16.04-1.152c0-0.667,0-1.991,0-2.648
	c2.456-0.95,4.781-2.224,7.206-3.255c3.74-0.697,7.601,3.992,11.077,0.91c2.648-2.406,5.973-3.568,9.561-3.255
	c4.255-1.718,8.389-3.649,12.048-6.458c5.63-1.061,11.371-2.123,17.132-2.507c0.526-0.98,1.081-1.971,1.647-2.941
	c4.68,0.101,8.46-2.881,12.543-4.71c3.416,1.152,7.075-0.162,10.501,0.93c2.052,0.606,4.174,0.859,6.327,0.97
	c-0.243-1.476-0.293-2.992-0.788-4.407c-0.889-1.385-2.557-2.183-2.901-3.932c2.466-0.03,4.942,0.02,7.419,0.121
	c0.364-0.475,1.112-1.425,1.476-1.9c2.153,1.102,4.599,0.849,6.954,0.819c-0.202-1.84-0.586-3.659-1.365-5.337
	c4.932,0.798,9.177,3.851,14.15,4.356c1.647-2.567,3.366-5.104,4.619-7.914c2.88-1.233,5.711-2.79,8.854-3.265
	c2.901,0.606,5.832,1.162,8.824,1.152c0.677-2.123,1.071-4.306,1.263-6.509c2.931,0.829,6.054,2.921,9.127,1.395
	c4.841-1.88,10.4-0.647,15.141-2.891c9.38-16.327,9.662,0.647,26.986-15.474c7.903,3.65,8.323-3.585,14.989-3.133
	c0.566-0.667,1.142-1.344,1.738-2.021c4.548-0.364,9.177-0.061,13.655-1.172c1.294-1.637,2.476-3.366,3.831-4.963
	c1.607-0.485,2.931,0.809,4.376,1.294c2.203,0.243,4.427-0.02,6.661-0.131c0.647-2.153,1.435-4.255,2.335-6.307
	c2.456-0.364,4.033,1.324,4.801,3.507c4.063,0.253,7.53-2.406,11.583-2.325c2.102,0.04,3.982-0.991,5.943-1.627
	c8.802-1.609,9.584,2.997,24.065-5.417c1.263-0.98,2.921-0.889,4.437-1.203c5.488-0.93,10.471-4.033,16.131-4.002
	c1.577-0.081,2.688-1.395,3.992-2.163c3.75,0.374,8.045,0.94,10.623-2.496c3.073,0.303,6.115,0.859,9.208,1.112
	c0.414-0.515,1.263-1.536,1.678-2.052c2.496-0.606,4.882-1.587,7.237-2.638c0.445-1.041,0.9-2.082,1.385-3.123
	c1.556,0.04,3.123,0.081,4.72,0.121c0.101,0.617,0.313,1.84,0.414,2.456c3.942-0.212,7.853-0.859,11.815-1.112
	c0.04,0.455,0.121,1.364,0.162,1.819c4.791,0.708,7.681-4.356,12.331-3.992c3.083,0.212,5.731-1.587,8.591-2.426
	c5.225,1.91,10.511-0.778,15.747-1.233c2.911-0.101,3.285,3.457,5.68,4.316c2.021,0.96,4.346,0.606,6.549,0.778
	c-0.182-1.688-0.384-3.386-1.061-4.953c0.475-0.344,1.435-1.031,1.91-1.375c3.275,2.011,6.873,3.74,10.845,3.073
	c1.344-2.486,2.961-5.599,6.347-4.326c1.415,3.8,5.872,3.153,9.127,3.426c0.03,0.819,0.091,2.466,0.121,3.285
	c1.223-0.222,2.466-0.455,3.72-0.697c-1.809-2.385-1.536-5.347-1.304-8.136c2.689,0.546,5.448,2.082,8.237,1.132
	c2.901-0.93,6.145-0.424,8.894-1.93c1.88,2.092,2.891,4.73,2.82,7.56c4.558-1.122,9.198-2.011,13.918-1.476
	c1.688,2.689,5.246,2.011,7.692,0.788c2.284-1.779,4.518-4.68,7.823-3.922c0.768,2.608-0.657,4.427-3.275,4.508
	c0.778,0.202,1.567,0.394,2.385,0.596c0.051,0.485,0.162,1.445,0.212,1.93c1.011-1.405,2.82-1.152,4.366-1.395
	c0.92-2.891,1.88-5.771,2.84-8.662c2.79-0.617,5.286,0.465,7.136,2.577c1.839,2.325,4.872,1.829,7.5,1.647
	c0,0.505,0.02,1.506,0.03,2.001c1.668-0.445,3.366-0.9,5.064-1.354c0.95-1.466,1.9-2.931,2.84-4.417
	c3.153,0.485,5.984,2.203,7.53,5.043c-0.374-2.881,2.618-2.244,4.538-2.133c1.84,0.647,3.386,1.92,4.963,3.052
	c1.85,0.04,3.8,0.202,5.559-0.606c1.274,0.627,2.689,0.556,4.114,0.515c0.596-0.718,1.223-1.425,1.87-2.133
	c3.911-0.546,7.014-3.73,11.148-3.255c0.263-0.576,0.798-1.749,1.061-2.335c1.011,0.03,3.042,0.101,4.053,0.131
	c0.283,1.506,0.606,3.002,0.93,4.508c0.627,0.071,1.86,0.222,2.486,0.303c-0.071,0.839-0.121,1.688-0.152,2.527
	c2.234-1.334,4.68-2.365,7.338-2.446c6.465-6.027,4.39-6.638,14.676-5.428c-0.01,1.324,0,2.648,0.03,3.972
	C1538.637,35.755,1542.377,33.632,1542.599,29.761 M1273.404,1287.066c-0.92,2.901-1.253,5.943-1.183,8.995
	c0.859-0.141,2.567-0.414,3.416-0.556c1.031-2.123,1.466-4.498,1.738-6.802C1277.255,1286.52,1274.819,1287.299,1273.404,1287.066
	 M1289.232,1353.127c0-0.627,0-1.87,0-2.497C1287.726,1350.155,1287.726,1353.592,1289.232,1353.127 M1318.422,1377.495
	c-0.859,2.688-2.143,5.336-1.86,8.247c4.562-1.14,5.253,2.642,6.691-8.813C1321.615,1377.091,1320.019,1377.283,1318.422,1377.495z"
	/>
<path stroke="#000000" stroke-width="0.0938" d="M1420.896,46.545C1421.476,47.055,1421.476,47.055,1420.896,46.545z"/>
<path stroke="#000000" stroke-width="0.0938" d="M1794.896,76.135C1797.826,74.525,1795.136,79.455,1794.896,76.135z"/>
<path stroke="#000000" stroke-width="0.0938" d="M1365.326,1403.265c0.39-0.26,1.18-0.77,1.58-1.02c-0.86,1.18-1.68,2.41-2.43,3.67
	c-1.15,1.85-2.43,3.62-3.72,5.38c-1.67,0.09-3.33,0.21-4.95,0.4c-1.32,0.77-2.89,0.68-4.32,0.83c0.82-0.41,1.66-0.8,2.52-1.17
	c2.4-1.23,5.01-2.19,7.07-3.98C1362.516,1405.985,1362.886,1403.245,1365.326,1403.265z"/>
</svg>
