<?xml version="1.0" standalone="no"?>
<!DOCTYPE svg PUBLIC "-//W3C//DTD SVG 20010904//EN"
 "http://www.w3.org/TR/2001/REC-SVG-20010904/DTD/svg10.dtd">
<svg version="1.0" xmlns="http://www.w3.org/2000/svg"
 width="1280.000000pt" height="1280.000000pt" viewBox="0 0 1280.000000 1280.000000"
 preserveAspectRatio="xMidYMid meet">
<metadata>
Created by potrace 1.15, written by Peter Selinger 2001-2017
</metadata>
<g transform="translate(0.000000,1280.000000) scale(0.100000,-0.100000)"
fill="#000000" stroke="none">
<path d="M5295 12338 c-103 -56 -314 -363 -414 -601 -21 -51 -50 -117 -64
-147 -32 -71 -54 -167 -78 -350 -21 -155 -28 -197 -43 -270 -9 -41 -21 -101
-26 -132 -28 -170 -127 -363 -242 -474 -145 -139 -199 -171 -212 -126 -31 107
-32 230 -5 452 11 91 24 194 29 230 4 36 17 91 28 123 22 61 109 220 124 225
4 2 8 8 8 14 0 6 11 25 24 43 25 33 43 96 32 114 -4 6 -13 8 -22 4 -13 -5 -98
-109 -154 -189 -84 -119 -131 -200 -154 -269 -43 -129 -46 -140 -46 -164 0
-12 -5 -32 -11 -43 -21 -40 -40 -224 -45 -453 -3 -126 -7 -239 -9 -250 -4 -19
-49 -47 -118 -74 -15 -6 -56 -11 -91 -11 -103 0 -176 40 -244 133 -52 71 -57
87 -93 287 -15 87 -15 317 1 410 24 142 96 328 173 447 59 92 97 167 97 193 0
23 -29 27 -61 8 -24 -15 -148 -169 -171 -213 -9 -16 -34 -65 -57 -108 -51 -97
-128 -318 -160 -457 -14 -62 -31 -226 -31 -297 0 -112 21 -176 123 -378 58
-114 61 -123 61 -195 1 -64 -3 -80 -23 -107 -13 -18 -39 -39 -57 -48 -44 -21
-139 -19 -189 4 -53 24 -183 162 -218 231 -29 58 -40 79 -57 108 -40 66 -109
225 -115 262 -27 155 9 344 102 539 62 129 113 250 113 267 0 42 -77 -24 -144
-124 -31 -45 -56 -84 -56 -86 0 -2 -22 -50 -48 -107 -27 -57 -54 -120 -61
-139 -7 -19 -17 -44 -21 -55 -9 -21 -14 -44 -31 -135 -16 -82 0 -256 31 -345
13 -39 93 -199 109 -218 9 -11 32 -38 51 -61 55 -65 103 -145 96 -161 -8 -21
-69 -19 -114 4 -54 27 -143 127 -237 266 -26 39 -51 72 -55 75 -4 3 -31 39
-60 80 -29 41 -63 86 -75 100 -34 37 -160 250 -178 301 -29 80 -65 213 -72
261 -6 45 16 168 35 193 4 6 17 42 30 80 27 87 38 111 124 260 94 164 96 168
96 183 0 21 -43 13 -85 -16 -53 -36 -123 -106 -167 -167 -61 -86 -174 -319
-214 -445 -8 -25 -19 -53 -24 -62 -6 -10 -10 -27 -10 -37 0 -36 -19 -32 -29 6
-19 66 -9 208 18 268 5 11 24 58 44 105 32 79 59 128 161 290 44 70 40 85 -19
74 -27 -5 -56 -24 -105 -71 -101 -95 -142 -166 -207 -355 l-56 -163 -1 -155
c-1 -150 0 -156 27 -206 15 -29 27 -58 27 -65 0 -20 118 -246 153 -293 89
-118 148 -183 290 -318 85 -81 160 -161 167 -177 16 -41 5 -97 -26 -128 -20
-19 -33 -24 -65 -22 -43 4 -69 -16 -69 -51 0 -9 -9 -25 -21 -36 -37 -34 -146
-16 -284 46 -142 65 -179 70 -260 35 -95 -40 -124 -41 -315 -15 -41 6 -142 14
-225 19 -96 5 -165 14 -192 24 -23 9 -79 21 -125 26 -46 5 -111 18 -146 27
-47 13 -73 15 -100 8 -33 -8 -41 -17 -69 -74 -35 -71 -39 -99 -28 -206 9 -85
-3 -129 -45 -169 -28 -27 -30 -34 -30 -103 0 -131 38 -214 109 -241 15 -5 63
-21 108 -35 46 -14 100 -36 120 -49 21 -13 63 -39 93 -56 54 -32 126 -110 160
-174 15 -27 23 -32 50 -29 57 4 93 -47 111 -158 19 -116 35 -176 41 -152 15
56 68 29 68 -34 0 -39 12 -49 40 -34 14 8 26 8 41 -1 17 -9 20 -17 15 -45 -19
-110 -19 -105 2 -111 11 -2 34 -22 51 -43 25 -31 31 -48 31 -86 0 -40 2 -45
15 -34 19 16 45 -3 45 -32 0 -19 4 -21 50 -32 14 -4 42 -21 62 -39 35 -31 37
-36 48 -127 16 -127 16 -127 40 -105 28 25 47 13 57 -37 7 -34 13 -43 31 -44
28 -2 52 -22 52 -44 0 -10 19 -34 41 -54 33 -27 49 -35 77 -33 31 2 36 -1 44
-28 4 -16 12 -61 16 -98 6 -61 10 -70 35 -85 27 -16 29 -16 38 1 12 20 35 23
42 5 2 -7 2 -64 -1 -126 -4 -99 -3 -112 11 -107 8 4 17 15 20 26 7 27 36 24
47 -7 6 -14 10 -50 10 -80 0 -30 5 -54 10 -54 6 0 10 5 10 11 0 6 14 9 33 7
30 -3 32 -6 37 -50 7 -60 24 -80 44 -52 14 18 16 18 31 3 11 -11 17 -33 17
-65 0 -71 4 -82 32 -77 30 6 40 -11 56 -97 19 -100 18 -99 44 -67 31 39 55 32
75 -23 10 -25 25 -65 34 -90 28 -75 32 -78 60 -52 l25 23 17 -58 c31 -108 39
-119 65 -88 31 37 70 3 70 -61 0 -31 6 -30 41 7 16 17 33 28 38 25 5 -3 15
-30 21 -58 17 -71 21 -75 37 -44 17 33 47 31 51 -4 3 -25 20 -77 42 -134 8
-22 14 -26 22 -18 23 23 46 12 78 -38 35 -54 41 -58 60 -35 17 20 30 19 56 -6
21 -20 23 -20 48 -4 30 20 40 15 65 -33 21 -41 28 -34 33 33 2 33 7 41 26 43
12 2 22 -1 22 -5 0 -5 6 -17 13 -27 12 -16 15 -15 45 14 38 36 50 35 72 -6 16
-28 19 -29 116 -36 120 -8 149 -17 284 -81 180 -86 332 -195 396 -284 24 -34
44 -64 44 -68 0 -5 34 -62 75 -127 92 -144 233 -294 325 -346 35 -20 87 -47
114 -58 40 -18 51 -28 62 -60 8 -22 14 -58 14 -81 0 -23 5 -54 11 -70 21 -51
54 -344 53 -468 -1 -115 -34 -401 -50 -426 -5 -8 -11 -36 -15 -64 -4 -27 -15
-81 -24 -120 -29 -124 -22 -348 16 -440 19 -47 31 -130 25 -168 -4 -23 -11
-94 -17 -157 -24 -291 -65 -551 -109 -705 -5 -16 -14 -50 -21 -75 -30 -114
-51 -154 -118 -230 -37 -42 -74 -86 -82 -97 -16 -22 -127 -114 -190 -158 -53
-37 -169 -145 -169 -158 0 -5 9 -21 19 -36 15 -20 34 -29 83 -40 34 -7 83 -19
108 -26 68 -21 232 -38 281 -30 48 8 79 29 80 54 0 9 17 42 37 74 32 51 45 61
97 83 33 13 73 24 89 24 38 0 55 25 56 83 0 26 9 76 21 110 31 90 40 153 49
327 5 85 11 166 13 180 3 14 11 93 17 175 25 337 56 597 76 640 8 16 25 50 38
75 20 38 61 153 106 296 6 17 10 43 10 57 0 15 4 35 10 45 5 9 28 69 50 132
41 115 48 134 68 180 6 14 23 66 37 115 15 50 37 122 49 160 13 39 29 90 36
115 7 25 16 56 20 70 4 14 15 63 25 110 9 47 20 99 26 116 5 17 9 42 9 57 0
29 17 107 31 144 5 14 17 23 30 23 21 0 22 -2 14 -77 -11 -103 -10 -196 4
-448 11 -211 8 -317 -20 -580 -14 -125 -16 -276 -5 -320 9 -33 20 -61 78 -182
33 -71 47 -88 106 -134 145 -113 278 -260 469 -519 51 -69 108 -143 126 -165
19 -22 67 -89 108 -150 69 -103 187 -235 209 -235 18 0 294 -282 357 -365 74
-97 151 -172 188 -181 35 -9 73 27 116 113 42 82 62 224 47 316 -10 53 -14 62
-57 93 -25 19 -56 37 -68 40 -13 3 -23 9 -23 13 0 3 -15 15 -34 25 -36 19 -51
46 -62 111 -4 22 -14 48 -23 58 -15 18 -114 69 -159 82 -12 4 -55 37 -95 73
-40 37 -93 81 -117 97 -89 61 -363 353 -513 548 -140 183 -187 289 -187 425 0
77 3 92 25 124 14 20 25 39 25 42 0 3 27 60 59 128 32 68 75 170 95 228 32 90
65 180 96 255 5 11 20 67 35 125 33 127 44 166 57 205 5 17 12 41 15 55 2 14
8 34 13 45 5 11 11 34 14 50 26 150 47 218 109 343 49 101 74 124 120 111 43
-12 224 -11 306 1 245 39 319 56 449 105 76 28 89 28 227 6 82 -13 154 -29
168 -38 6 -4 29 -10 52 -14 57 -9 220 -54 323 -88 161 -53 243 -70 427 -91 81
-10 115 -19 180 -50 44 -22 99 -44 123 -49 23 -6 59 -15 81 -21 55 -14 137
-12 201 5 30 8 60 15 67 15 7 0 19 -26 28 -57 9 -32 21 -72 26 -89 5 -17 9
-44 9 -62 0 -17 4 -33 9 -36 5 -3 11 -23 14 -43 3 -21 12 -67 21 -103 9 -36
24 -110 35 -165 11 -55 24 -113 29 -130 5 -16 15 -50 22 -75 7 -25 33 -106 58
-180 48 -145 57 -204 68 -464 7 -142 4 -166 -38 -326 -20 -76 -147 -340 -214
-447 -62 -98 -259 -392 -333 -498 -115 -164 -237 -348 -256 -385 -37 -74 -109
-162 -178 -220 -75 -63 -177 -181 -177 -205 0 -14 -89 -73 -183 -120 -61 -31
-128 -99 -147 -150 -13 -33 -4 -46 57 -81 63 -38 160 -55 314 -57 165 -2 170
1 219 130 7 18 39 58 71 90 33 32 75 81 93 108 19 28 46 61 60 74 25 24 26 24
70 7 41 -16 47 -16 76 -1 17 9 33 24 36 33 3 9 12 29 20 44 8 14 14 30 14 36
0 11 52 123 78 167 9 17 33 57 51 90 19 33 61 101 93 152 32 51 58 95 58 98 0
3 32 56 72 118 39 61 95 150 124 197 63 101 153 241 260 405 44 66 84 127 89
136 39 65 111 166 143 202 21 23 53 62 70 87 17 25 54 74 82 110 28 36 74 103
101 149 65 108 69 145 34 301 -27 120 -39 185 -55 285 -5 33 -11 69 -14 80 -2
11 -10 88 -17 170 -9 114 -9 172 0 245 12 92 22 120 45 120 7 0 64 -60 128
-133 108 -123 327 -344 477 -483 232 -213 343 -338 397 -449 21 -44 50 -98 63
-120 14 -22 54 -98 91 -170 63 -125 92 -211 121 -369 6 -28 14 -69 18 -91 58
-280 67 -336 86 -535 19 -195 35 -592 26 -651 -11 -67 -87 -205 -134 -242 -24
-19 -49 -53 -63 -84 -15 -34 -34 -57 -52 -67 -125 -65 -272 -198 -272 -246 0
-19 37 -50 75 -64 66 -25 357 -39 432 -21 41 9 76 59 103 148 15 48 31 76 55
99 19 17 53 65 76 107 52 98 101 149 157 163 23 6 47 19 53 29 5 10 12 74 15
141 6 125 -5 239 -42 423 -9 44 -20 107 -24 140 -5 33 -13 87 -19 120 -5 33
-15 98 -21 145 -6 47 -13 92 -16 100 -5 13 -14 99 -45 420 -20 213 -31 599
-21 762 6 90 13 176 17 191 18 70 -67 208 -219 355 -166 160 -205 212 -306
412 -125 247 -140 417 -64 770 9 41 23 100 31 130 8 30 19 71 23 90 5 19 29
118 54 220 43 170 53 207 76 265 8 22 24 75 40 142 14 58 31 214 39 365 3 69
10 130 14 134 18 19 27 -29 27 -153 0 -143 3 -149 50 -116 121 85 176 262 153
492 -13 130 -40 211 -99 300 -39 60 -58 77 -142 129 -53 33 -163 92 -243 132
-81 39 -155 79 -165 88 -108 97 -262 184 -439 247 -27 10 -90 42 -140 70 -49
28 -103 58 -120 66 -16 9 -82 43 -145 76 -186 98 -311 129 -555 138 -230 8
-487 23 -580 34 -176 20 -328 42 -337 47 -5 4 -40 11 -76 16 -37 5 -92 14
-122 19 -71 11 -176 26 -270 39 -41 6 -309 15 -595 19 -474 8 -530 11 -635 31
-63 12 -127 25 -143 27 -15 3 -30 9 -33 14 -3 5 -13 9 -22 9 -43 0 -276 86
-347 128 -32 19 -186 88 -230 103 -22 7 -44 17 -49 21 -6 4 -19 8 -31 8 -12 0
-25 4 -31 8 -14 13 -72 28 -244 63 -152 31 -160 32 -421 32 -154 0 -280 -5
-300 -11 -19 -5 -88 -18 -154 -27 -66 -10 -160 -27 -210 -38 -49 -10 -107 -21
-128 -24 -20 -3 -40 -9 -43 -14 -3 -5 -18 -9 -35 -9 -16 0 -37 -4 -47 -9 -26
-14 -157 -51 -182 -51 -12 0 -18 5 -15 10 14 23 -29 20 -126 -9 -125 -38 -146
-39 -151 -8 -5 35 -74 34 -198 -3 -48 -14 -70 17 -30 42 32 20 24 27 -40 30
-64 3 -86 21 -32 26 17 2 32 8 32 13 0 11 -95 1 -122 -12 -9 -5 -30 -9 -47 -9
-16 0 -33 -5 -36 -10 -11 -17 -26 0 -19 22 6 19 3 20 -32 13 -21 -3 -55 -15
-76 -26 -66 -34 -169 -16 -181 31 -4 17 -14 20 -69 20 -96 0 -172 17 -262 59
-45 21 -107 48 -140 61 -62 25 -210 119 -232 148 -23 30 -15 59 35 119 56 66
100 140 136 228 9 22 20 49 26 60 5 11 10 52 11 90 l3 70 150 6 c83 4 173 11
200 17 99 20 257 73 316 105 24 13 85 46 134 72 131 69 217 116 245 135 14 10
69 40 122 68 54 29 106 56 115 62 37 20 147 60 167 60 12 0 59 -20 106 -44 47
-25 132 -68 190 -98 125 -63 353 -191 395 -221 133 -96 208 -164 324 -288 232
-248 319 -329 446 -414 66 -44 122 -82 125 -86 10 -12 227 -125 265 -138 44
-14 97 -12 101 4 2 6 -24 33 -58 60 -33 28 -65 55 -72 60 -6 6 -72 56 -146
112 -74 56 -188 154 -253 218 -110 110 -155 164 -287 349 -70 98 -75 104 -136
157 -63 54 -76 65 -145 117 -85 65 -96 75 -113 109 -34 69 -12 152 57 215 49
44 55 45 90 18 14 -11 72 -43 129 -70 278 -135 377 -213 506 -400 21 -30 58
-70 83 -89 24 -18 58 -45 74 -60 67 -59 339 -248 465 -323 25 -15 61 -41 80
-57 68 -59 83 -24 23 50 -21 25 -84 82 -141 125 -101 77 -272 243 -272 264 0
5 -6 18 -14 27 -8 10 -31 38 -51 62 -20 24 -41 53 -47 64 -6 12 -25 35 -42 52
-56 54 -192 228 -227 290 -70 126 -73 136 -59 175 13 34 123 188 175 243 14
15 45 60 67 100 23 40 44 74 47 77 3 3 15 21 25 40 11 19 40 66 65 104 70 105
181 298 181 313 0 8 5 23 10 34 9 15 7 21 -6 26 -11 4 -31 -10 -65 -43 -95
-94 -314 -343 -374 -424 -106 -144 -142 -185 -190 -215 -78 -50 -160 -75 -213
-65 -76 14 -77 9 14 221 13 31 24 59 24 63 0 3 9 25 19 49 32 68 96 282 122
407 15 70 22 170 12 170 -11 0 -73 -64 -102 -107 -27 -40 -130 -264 -191 -418
-50 -125 -108 -240 -135 -265 -18 -17 -30 -20 -54 -15 -39 8 -77 39 -98 78
-43 79 -1 556 58 669 5 10 9 31 9 47 0 17 5 33 10 36 6 3 10 15 10 26 0 11 9
50 20 87 12 37 35 112 51 167 17 55 35 109 39 120 11 23 18 98 26 245 4 83 2
113 -10 143 -30 69 -49 48 -85 -93 -34 -130 -79 -246 -148 -383 -19 -38 -54
-119 -79 -180 -25 -62 -49 -122 -54 -134 -6 -13 -14 -33 -19 -45 -9 -22 -26
-92 -51 -213 -21 -100 -87 -276 -138 -365 -86 -150 -281 -350 -343 -350 -28 0
-57 47 -64 105 -6 43 -1 82 24 187 56 232 68 301 81 463 18 215 30 306 51 395
12 47 25 101 29 120 37 155 93 316 156 448 31 64 78 163 105 219 63 131 64
164 4 131z m225 -2244 c13 -12 12 -17 -8 -36 -18 -19 -36 -23 -97 -26 -79 -4
-105 5 -105 38 0 16 29 29 95 44 33 7 99 -4 115 -20z m-2305 -754 c0 -10 -34
-28 -93 -52 -51 -21 -106 -47 -122 -58 -15 -11 -35 -20 -42 -20 -21 0 -50 36
-46 56 4 21 73 59 143 78 67 19 160 16 160 -4z"/>
</g>
</svg>
